<svg width="100" height="40" viewBox="0 0 100 40" fill="none" xmlns="http://www.w3.org/2000/svg">
<rect width="100" height="40" rx="10" fill="white"/>
<path d="M10.68 25.68C11.56 25.68 12.368 25.56 13.104 25.32C13.84 25.064 14.48 24.688 15.024 24.192C15.584 23.68 16.032 23.032 16.368 22.248C16.704 21.464 16.912 20.528 16.992 19.44H7.944V17.64H16.992C16.912 16.584 16.704 15.672 16.368 14.904C16.032 14.136 15.592 13.504 15.048 13.008C14.52 12.496 13.904 12.12 13.2 11.88C12.496 11.64 11.736 11.52 10.92 11.52C9.832 11.52 8.784 11.712 7.776 12.096C6.784 12.464 5.832 13.072 4.92 13.92L3.72 12.48C4.632 11.632 5.736 10.96 7.032 10.464C8.328 9.968 9.704 9.72 11.16 9.72C12.6 9.72 13.904 9.912 15.072 10.296C16.256 10.68 17.264 11.248 18.096 12C18.944 12.752 19.6 13.68 20.064 14.784C20.528 15.888 20.76 17.16 20.76 18.6C20.76 20.04 20.528 21.312 20.064 22.416C19.6 23.52 18.936 24.448 18.072 25.2C17.224 25.952 16.192 26.52 14.976 26.904C13.776 27.288 12.424 27.48 10.92 27.48C9.464 27.48 8.088 27.232 6.792 26.736C5.496 26.24 4.392 25.568 3.48 24.72L4.68 23.28C5.592 24.128 6.544 24.744 7.536 25.128C8.544 25.496 9.592 25.68 10.68 25.68Z" fill="#FF0000"/>
<path d="M21.8522 25.68H22.5722C22.7802 25.68 22.9722 25.64 23.1482 25.56C23.3242 25.464 23.4762 25.312 23.6042 25.104C23.7482 24.896 23.8602 24.616 23.9402 24.264C24.0362 23.912 24.1002 23.464 24.1322 22.92L24.6122 14.52H36.1322V27H32.7722V16.2H27.7322L27.3722 22.92C27.2922 24.536 26.9082 25.68 26.2202 26.352C25.5482 27.024 24.6122 27.36 23.4122 27.36C23.0282 27.36 22.6762 27.32 22.3562 27.24C22.1802 27.208 22.0122 27.168 21.8522 27.12V25.68Z" fill="#FF8400"/>
<path d="M52.9247 14.52V27H49.5647V17.64H49.3247L43.8047 27H39.4847V14.52H42.8447V23.88H43.0847L48.6047 14.52H52.9247Z" fill="#E6F200"/>
<path d="M63.0094 14.04C63.5214 14.04 64.0334 14.088 64.5454 14.184C65.0574 14.264 65.5454 14.384 66.0094 14.544C66.4894 14.688 66.9294 14.872 67.3294 15.096C67.7454 15.32 68.1054 15.568 68.4094 15.84L67.4494 17.28C66.7934 16.784 66.1214 16.4 65.4334 16.128C64.7614 15.856 64.0334 15.72 63.2494 15.72C62.6734 15.72 62.1454 15.816 61.6654 16.008C61.1854 16.184 60.7694 16.48 60.4174 16.896C60.0654 17.296 59.7854 17.816 59.5774 18.456C59.3854 19.096 59.2894 19.864 59.2894 20.76C59.2894 21.656 59.3854 22.424 59.5774 23.064C59.7854 23.704 60.0734 24.232 60.4414 24.648C60.8094 25.048 61.2494 25.344 61.7614 25.536C62.2894 25.712 62.8654 25.8 63.4894 25.8C64.2734 25.8 65.0014 25.664 65.6734 25.392C66.3614 25.12 67.0334 24.736 67.6894 24.24L68.6494 25.68C68.3454 25.952 67.9854 26.2 67.5694 26.424C67.1694 26.648 66.7294 26.84 66.2494 27C65.7854 27.144 65.2974 27.256 64.7854 27.336C64.2734 27.432 63.7614 27.48 63.2494 27.48C62.1134 27.48 61.0734 27.328 60.1294 27.024C59.2014 26.736 58.4094 26.312 57.7534 25.752C57.0974 25.176 56.5854 24.472 56.2174 23.64C55.8654 22.808 55.6894 21.848 55.6894 20.76C55.6894 19.688 55.8654 18.736 56.2174 17.904C56.5854 17.056 57.0894 16.352 57.7294 15.792C58.3694 15.216 59.1374 14.784 60.0334 14.496C60.9294 14.192 61.9214 14.04 63.0094 14.04Z" fill="#00FF04"/>
<path d="M82.7034 16.2H77.6634V27H74.3034V16.2H69.2634V14.52H82.7034V16.2Z" fill="#0004FF"/>
<path d="M86.6588 23.04C86.6588 24.56 87.5788 25.32 89.4188 25.32H92.7788V20.76H89.4188C87.5788 20.76 86.6588 21.52 86.6588 23.04ZM92.7788 19.08C92.7788 17.928 92.4748 17.08 91.8668 16.536C91.2748 15.992 90.4988 15.72 89.5388 15.72C88.8188 15.72 88.1148 15.832 87.4268 16.056C86.7388 16.264 86.1228 16.552 85.5788 16.92L84.7388 15.48C85.0908 15.24 85.4748 15.032 85.8908 14.856C86.3228 14.68 86.7628 14.536 87.2108 14.424C87.6588 14.296 88.0988 14.2 88.5308 14.136C88.9788 14.072 89.3948 14.04 89.7788 14.04C90.8028 14.04 91.7068 14.16 92.4908 14.4C93.2748 14.64 93.9388 14.984 94.4828 15.432C95.0268 15.88 95.4348 16.416 95.7068 17.04C95.9948 17.648 96.1388 18.328 96.1388 19.08V27H89.4188C87.2428 27 85.6348 26.672 84.5948 26.016C83.5708 25.36 83.0588 24.368 83.0588 23.04C83.0588 21.712 83.5708 20.72 84.5948 20.064C85.6348 19.408 87.2428 19.08 89.4188 19.08H92.7788Z" fill="#E100FF"/>
</svg>
