<?xml version="1.0" encoding="UTF-8" standalone="no"?>
<svg
   xmlns:dc="http://purl.org/dc/elements/1.1/"
   xmlns:cc="http://creativecommons.org/ns#"
   xmlns:rdf="http://www.w3.org/1999/02/22-rdf-syntax-ns#"
   xmlns:svg="http://www.w3.org/2000/svg"
   xmlns="http://www.w3.org/2000/svg"
   xmlns:sodipodi="http://sodipodi.sourceforge.net/DTD/sodipodi-0.dtd"
   xmlns:inkscape="http://www.inkscape.org/namespaces/inkscape"
   width="240.98138"
   height="300"
   viewBox="0 0 595.276 841.89"
   id="svg2"
   sodipodi:version="0.32"
   inkscape:version="0.46"
   sodipodi:docname="Uralan.svg"
   inkscape:output_extension="org.inkscape.output.svg.inkscape"
   version="1.0">
  <metadata
     id="metadata231">
    <rdf:RDF>
      <cc:Work
         rdf:about="">
        <dc:format>image/svg+xml</dc:format>
        <dc:type
           rdf:resource="http://purl.org/dc/dcmitype/StillImage" />
      </cc:Work>
    </rdf:RDF>
  </metadata>
  <defs
     id="defs229">
    <inkscape:perspective
       sodipodi:type="inkscape:persp3d"
       inkscape:vp_x="0 : 526.18127 : 1"
       inkscape:vp_y="0 : 1000 : 0"
       inkscape:vp_z="744.09497 : 526.18127 : 1"
       inkscape:persp3d-origin="372.04749 : 350.78752 : 1"
       id="perspective233" />
  </defs>
  <sodipodi:namedview
     inkscape:window-height="994"
     inkscape:window-width="1680"
     inkscape:pageshadow="2"
     inkscape:pageopacity="0.0"
     guidetolerance="10.0"
     gridtolerance="10.0"
     objecttolerance="10.0"
     borderopacity="1.0"
     bordercolor="#666666"
     pagecolor="#ffffff"
     id="base"
     showgrid="false"
     inkscape:zoom="0.4390122"
     inkscape:cx="372.04749"
     inkscape:cy="526.18127"
     inkscape:window-x="-4"
     inkscape:window-y="-4"
     inkscape:current-layer="svg2" />
  <g
     id="g2606"
     transform="matrix(1.3733394,0,0,1.3733394,-70.651852,-116.82311)">
    <g
       id="g4"
       style="fill:#fce505;fill-rule:nonzero;stroke:none;stroke-width:1;stroke-linecap:butt;stroke-linejoin:miter;stroke-dasharray:none"
       transform="translate(17.3936,91.094)">
      <path
         id="path6"
         d="M 250.354,41.625 C 166.804,41.625 86.2384,0 86.2384,0 C 86.2384,0 11.6406,93.161 11.6406,93.161 C 11.6406,93.161 22.9023,110.317 35.5127,136.768 C 54.4104,176.411 47.4472,212.73 34.5166,250.742 C 14.623,309.216 0,355.468 16.1992,406.915 C 34.7646,465.884 77.3034,506.138 121.051,531.215 C 130.283,536.506 144.683,542.569 170.901,551.603 C 198.963,561.274 208.994,565.292 216.371,568.791 C 240.74,580.352 250.766,597.615 250.766,597.615 C 250.766,597.615 260.815,580.352 285.184,568.791 C 292.559,565.292 302.59,561.274 330.652,551.603 C 356.871,542.569 371.274,536.506 380.503,531.215 C 424.253,506.138 466.789,465.884 485.357,406.915 C 501.555,355.468 486.93,309.216 467.04,250.742 C 454.106,212.73 447.146,176.411 466.044,136.768 C 478.652,110.317 489.916,93.161 489.916,93.161 C 489.916,93.161 415.317,0 415.317,0 C 415.317,0 334.75,41.625 251.2,41.625 C 251.2,41.625 250.354,41.625 250.354,41.625 z" />
    </g>
    <g
       id="g8"
       style="fill:#0066a3;fill-rule:nonzero;stroke:none;stroke-width:1;stroke-linecap:butt;stroke-linejoin:miter;stroke-dasharray:none"
       transform="translate(11.8418,85.065)">
      <path
         id="path10"
         d="M 418.681,1.791 C 417.885,2.203 338.123,42.884 256.752,42.884 C 256.752,42.884 255.906,42.884 255.906,42.884 C 174.534,42.884 94.7752,2.203 93.9782,1.791 C 93.9782,1.791 90.5102,0 90.5102,0 C 90.5102,0 11.3047,98.911 11.3047,98.911 C 11.3047,98.911 13.2041,101.806 13.2041,101.806 C 13.3145,101.975 24.4551,119.04 36.7588,144.85 C 54.3623,181.777 49.0078,215.684 35.5527,255.234 C 17.2686,308.978 0,359.743 17.2012,414.377 C 38.0498,480.593 86.9122,519.991 124.23,541.381 C 134.352,547.183 149.506,553.391 174.898,562.142 C 202.811,571.762 212.804,575.774 219.878,579.128 C 242.471,589.849 252.106,605.892 252.2,606.052 C 252.2,606.052 256.305,613.024 256.305,613.024 C 256.305,613.024 260.432,606.056 260.432,606.056 C 260.527,605.896 270.184,589.849 292.78,579.128 C 299.853,575.774 309.846,571.762 337.758,562.142 C 363.154,553.391 378.306,547.183 388.428,541.381 C 425.747,519.991 474.61,480.593 495.457,414.377 C 512.659,359.743 495.389,308.978 477.108,255.234 C 463.651,215.688 458.297,181.781 475.902,144.849 C 488.203,119.04 499.344,101.975 499.455,101.806 C 499.455,101.806 501.352,98.912 501.352,98.912 C 501.352,98.912 422.15,0 422.15,0 C 422.15,0 418.681,1.791 418.681,1.791 z M 256.752,52.423 C 331.725,52.423 403.031,20.037 419.549,12.011 C 423.919,17.467 485.728,94.66 489.614,99.512 C 485.889,105.494 477.047,120.276 467.291,140.745 C 458.619,158.936 455.286,176.581 455.286,193.664 C 455.286,216.2 461.085,237.757 468.077,258.305 C 482.887,301.844 493.171,335.249 493.171,367.576 C 493.171,382.163 491.078,396.532 486.358,411.511 C 466.437,474.789 419.528,512.561 383.683,533.106 C 374.24,538.518 359.118,544.692 334.649,553.124 C 306.194,562.93 296.252,566.924 288.691,570.511 C 271.84,578.505 261.515,589.054 256.321,595.492 C 251.133,589.054 240.818,578.505 223.967,570.511 C 216.406,566.924 206.463,562.929 178.007,553.124 C 153.543,544.692 138.42,538.518 128.975,533.106 C 93.1322,512.561 46.2236,474.789 26.2998,411.511 C 21.583,396.532 19.4893,382.163 19.4893,367.576 C 19.4893,335.249 29.7725,301.844 44.584,258.305 C 51.5752,237.755 57.373,216.196 57.373,193.662 C 57.373,176.578 54.04,158.934 45.3701,140.745 C 35.6123,120.276 26.7686,105.494 23.043,99.512 C 26.9287,94.66 88.7422,17.467 93.1112,12.011 C 109.627,20.037 180.933,52.423 255.906,52.423 C 255.906,52.423 256.752,52.423 256.752,52.423 z" />
    </g>
    <g
       id="g12"
       style="fill:#161413;fill-rule:nonzero;stroke:none;stroke-width:1;stroke-linecap:butt;stroke-linejoin:miter;stroke-dasharray:none"
       transform="translate(190.981,412.066)">
      <path
         id="path14"
         d="M 0,65.243 C 17.785,65.226 55.901,65.162 74.415,64.901 C 99.043,64.552 109.796,62.818 133.037,51.026 C 156.274,39.232 178.368,0 178.368,0 C 178.368,0 16.042,19.92 16.042,19.92 C 16.042,19.92 0,65.243 0,65.243 z" />
    </g>
    <g
       id="g16"
       style="fill:#161413;fill-rule:nonzero;stroke:none;stroke-width:1;stroke-linecap:butt;stroke-linejoin:miter;stroke-dasharray:none"
       transform="translate(231.277,249.07)">
      <path
         id="path18"
         d="M 0,114.542 C 0,114.542 80.323,96.034 125.416,85.628 C 170.51,75.222 173.909,67.294 186.049,52.032 C 198.19,36.768 209.639,0 209.639,0 C 209.639,0 76.339,43.738 37.588,56.194 C 29.893,58.667 23.641,60.61 18.526,62.19 C 18.526,62.19 0,114.542 0,114.542 z" />
    </g>
    <g
       id="g20"
       style="fill:#161413;fill-rule:nonzero;stroke:none;stroke-width:1;stroke-linecap:butt;stroke-linejoin:miter;stroke-dasharray:none"
       transform="translate(209.923,331.121)">
      <path
         id="path22"
         d="M 0,92.735 C 0,92.735 45.424,86.498 96.067,80.945 C 136.53,76.512 146.009,73.349 159.884,63.638 C 181.634,48.411 205.631,0 205.631,0 C 205.631,0 17.479,43.414 17.479,43.414 C 17.479,43.414 0,92.735 0,92.735 z" />
    </g>
    <g
       id="g24"
       style="fill:#161413;fill-rule:nonzero;stroke:none;stroke-width:1;stroke-linecap:butt;stroke-linejoin:miter;stroke-dasharray:none"
       transform="translate(107.718,314.015)">
      <path
         id="path26"
         d="M 35.982,37.728 C 40.421,38.389 41.836,40.272 40.391,41.522 C 38.946,42.777 37.248,43.762 35.08,44.015 C 33.069,44.251 30.49,43.452 30.49,41.449 C 30.49,40.195 31.611,37.078 35.982,37.728 z M 9.449,242.673 C 10.232,242.763 11.074,242.818 11.991,242.818 C 20.663,242.818 32.686,238.793 45.291,227.124 C 48.817,223.858 57.518,211.31 75.322,163.298 C 75.322,163.298 133.178,0 133.178,0 C 120.647,3.925 118.718,5 115.705,9.633 C 112.805,14.094 109.411,20.494 106.477,28.84 C 100.661,45.388 93.829,64.394 92.494,68.188 C 89.567,76.5 89.459,76.463 87.724,76.174 C 86.013,75.89 82.396,70.87 76.74,62.009 C 68.068,48.424 67.51,37.945 60.553,29.057 C 55.35,22.409 46.967,21.832 39.741,21.832 C 32.513,21.832 23.553,26.168 19.506,32.815 C 15.46,39.463 15.749,44.38 11.701,48.715 C 7.655,53.051 1.439,59.697 0.718,65.192 C 0,70.635 1.006,72.997 2.452,72.997 C 3.896,72.997 4.674,67.948 9.678,64.611 C 13.146,62.298 18.638,61.142 22.107,64.611 C 25.576,68.08 26.443,74.728 26.443,80.798 C 26.443,86.869 28.08,109.486 34.248,126.759 C 38,137.266 42.863,144.913 48.76,155.319 C 51.896,160.855 52.479,163.385 52.228,168.155 C 51.882,174.744 41.248,180.953 37.66,182.03 C 30.722,184.111 25.374,183.439 17.628,182.332 C 15.618,182.047 13.698,181.902 11.887,181.869 C 11.887,181.869 9.449,242.673 9.449,242.673 z" />
    </g>
    <g
       id="g28"
       style="fill:#161413;fill-rule:nonzero;stroke:none;stroke-width:1;stroke-linecap:butt;stroke-linejoin:miter;stroke-dasharray:none"
       transform="translate(96.569,496.034)">
      <path
         id="path30"
         d="M 18.452,0 C 15.455,0.257 12.923,0.797 10.999,1.397 C 7.531,2.481 3.411,5.949 1.677,10.719 C 0,15.329 0.593,19.174 0.593,19.174 C 0.593,19.174 4.495,12.453 12.734,11.153 C 14.636,10.853 16.465,10.84 18.018,10.942 C 18.018,10.942 18.452,0 18.452,0 z" />
    </g>
    <g
       id="g32"
       style="fill:#161413;fill-rule:nonzero;stroke:none;stroke-width:1;stroke-linecap:butt;stroke-linejoin:miter;stroke-dasharray:none"
       transform="translate(94.946,518.145)">
      <path
         id="path34"
         d="M 19.18,0.454 C 15.029,0 8.701,1.221 3.95,6.385 C 0,10.68 0.699,19.176 0.699,19.176 C 0.699,19.176 1.783,17.659 3.734,15.274 C 5.685,12.889 8.07,11.372 13.706,11.155 C 15.604,11.083 17.304,11.331 18.722,11.689 C 18.722,11.689 19.18,0.454 19.18,0.454 z" />
    </g>
    <g
       id="g36"
       style="fill:#161413;fill-rule:nonzero;stroke:none;stroke-width:1;stroke-linecap:butt;stroke-linejoin:miter;stroke-dasharray:none"
       transform="translate(93.96,543.373)">
      <path
         id="path38"
         d="M 19.163,0.173 C 15.473,0 10.115,0.668 5.37,4.788 C 0,9.452 0.601,19.314 0.601,19.314 C 0.601,19.314 0.817,18.446 2.769,16.062 C 4.72,13.677 8.622,11.075 12.741,11.075 C 14.858,11.075 16.631,11.707 18.68,12.319 C 18.68,12.319 19.163,0.173 19.163,0.173 z" />
    </g>
    <g
       id="g40"
       style="fill:#d10b1f;fill-rule:nonzero;stroke:none;stroke-width:1;stroke-linecap:butt;stroke-linejoin:miter;stroke-dasharray:none"
       transform="translate(350.033,206.559)">
      <path
         id="path42"
         d="M 0,3.701 C 0,3.701 3.06,2.775 3.06,2.775 C 3.06,2.775 5.008,9.217 5.008,9.217 C 5.008,9.217 8.588,1.104 8.588,1.104 C 8.588,1.104 12.236,0 12.236,0 C 12.236,0 8.001,8.743 8.001,8.743 C 8.001,8.743 17.193,14.979 17.193,14.979 C 17.193,14.979 13.305,16.155 13.305,16.155 C 13.305,16.155 5.42,10.342 5.42,10.342 C 5.42,10.342 7.626,17.873 7.626,17.873 C 7.626,17.873 4.567,18.797 4.567,18.797 C 4.567,18.797 0,3.701 0,3.701 z" />
    </g>
    <g
       id="g44"
       style="fill:#d10b1f;fill-rule:nonzero;stroke:none;stroke-width:1;stroke-linecap:butt;stroke-linejoin:miter;stroke-dasharray:none"
       transform="translate(367.753,203.403)">
      <path
         id="path46"
         d="M 1.457,1.058 C 1.457,1.058 4.953,0 4.953,0 C 4.953,0 15.518,13.284 15.518,13.284 C 15.518,13.284 12.064,14.327 12.064,14.327 C 12.064,14.327 9.764,11.314 9.764,11.314 C 9.764,11.314 3.526,13.201 3.526,13.201 C 3.526,13.201 3.283,16.984 3.283,16.984 C 3.283,16.984 0,17.975 0,17.975 C 0,17.975 1.457,1.058 1.457,1.058 z M 3.737,10.391 C 3.737,10.391 8.097,9.073 8.097,9.073 C 8.097,9.073 4.015,3.596 4.015,3.596 C 4.015,3.596 3.737,10.391 3.737,10.391 z" />
    </g>
    <g
       id="g48"
       style="fill:#d10b1f;fill-rule:nonzero;stroke:none;stroke-width:1;stroke-linecap:butt;stroke-linejoin:miter;stroke-dasharray:none"
       transform="translate(382.262,197.517)">
      <path
         id="path50"
         d="M 0,2.995 C 0,2.995 9.908,0 9.908,0 C 9.908,0 14.475,15.095 14.475,15.095 C 14.475,15.095 11.415,16.021 11.415,16.021 C 11.415,16.021 7.656,3.596 7.656,3.596 C 7.656,3.596 3.689,4.796 3.689,4.796 C 3.689,4.796 4.601,7.818 4.601,7.818 C 5.315,10.179 5.759,11.882 5.934,12.929 C 6.199,14.482 6.138,15.711 5.75,16.613 C 5.315,17.625 4.427,18.333 3.087,18.739 C 2.824,18.818 2.605,18.872 2.426,18.903 C 2.247,18.933 1.957,18.97 1.561,19.011 C 1.561,19.011 0.966,16.578 0.966,16.578 C 1.1,16.566 1.266,16.543 1.461,16.507 C 1.652,16.471 1.769,16.447 1.813,16.433 C 2.643,16.183 3.049,15.455 3.028,14.251 C 3.014,13.375 2.758,12.109 2.256,10.453 C 2.256,10.453 2.158,10.129 2.158,10.129 C 2.158,10.129 2.073,9.843 2.073,9.843 C 2.073,9.843 1.993,9.586 1.993,9.586 C 1.907,9.298 1.822,9.014 1.735,8.734 C 1.652,8.456 1.569,8.178 1.484,7.906 C 1.484,7.906 0,2.995 0,2.995 z" />
    </g>
    <g
       id="g52"
       style="fill:#d10b1f;fill-rule:nonzero;stroke:none;stroke-width:1;stroke-linecap:butt;stroke-linejoin:miter;stroke-dasharray:none"
       transform="translate(395.205,191.216)">
      <path
         id="path54"
         d="M 14.926,17.345 C 14.926,17.345 12.009,18.226 12.009,18.226 C 12.009,18.226 5.076,8.551 5.076,8.551 C 5.076,8.551 3.733,6.602 3.733,6.602 C 3.733,6.602 4.415,8.938 4.415,8.938 C 4.415,8.938 7.625,19.553 7.625,19.553 C 7.625,19.553 4.567,20.478 4.567,20.478 C 4.567,20.478 0,5.381 0,5.381 C 0,5.381 5.176,3.816 5.176,3.816 C 5.176,3.816 10.848,11.67 10.848,11.67 C 10.848,11.67 12.324,14.139 12.324,14.139 C 12.324,14.139 12.249,11.246 12.249,11.246 C 12.249,11.246 12.616,1.565 12.616,1.565 C 12.616,1.565 17.794,0 17.794,0 C 17.794,0 22.36,15.096 22.36,15.096 C 22.36,15.096 19.35,16.006 19.35,16.006 C 19.35,16.006 16.139,5.388 16.139,5.388 C 16.139,5.388 15.434,3.057 15.434,3.057 C 15.434,3.057 15.332,5.444 15.332,5.444 C 15.332,5.444 14.926,17.345 14.926,17.345 z" />
    </g>
    <g
       id="g56"
       style="fill:#d10b1f;fill-rule:nonzero;stroke:none;stroke-width:1;stroke-linecap:butt;stroke-linejoin:miter;stroke-dasharray:none"
       transform="translate(416.19,185.418)">
      <path
         id="path58"
         d="M 3.06,3.907 C 3.06,3.907 4.77,9.562 4.77,9.562 C 4.77,9.562 6.883,8.923 6.883,8.923 C 8.839,8.332 10.449,8.386 11.712,9.086 C 12.748,9.652 13.453,10.56 13.831,11.81 C 14.261,13.231 14.167,14.508 13.554,15.635 C 12.852,16.896 11.551,17.816 9.654,18.391 C 9.654,18.391 4.567,19.93 4.567,19.93 C 4.567,19.93 0,4.833 0,4.833 C 0,4.833 3.06,3.907 3.06,3.907 z M 5.492,11.948 C 5.492,11.948 6.904,16.617 6.904,16.617 C 6.904,16.617 8.927,16.006 8.927,16.006 C 9.702,15.771 10.248,15.368 10.569,14.796 C 10.888,14.225 10.946,13.596 10.738,12.909 C 10.501,12.125 10.046,11.607 9.376,11.357 C 8.794,11.145 8.096,11.161 7.278,11.408 C 7.278,11.408 5.492,11.948 5.492,11.948 z M 12.916,0.926 C 12.916,0.926 15.979,0 15.979,0 C 15.979,0 20.546,15.097 20.546,15.097 C 20.546,15.097 17.484,16.022 17.484,16.022 C 17.484,16.022 12.916,0.926 12.916,0.926 z" />
    </g>
    <g
       id="g60"
       style="fill:#d10b1f;fill-rule:nonzero;stroke:none;stroke-width:1;stroke-linecap:butt;stroke-linejoin:miter;stroke-dasharray:none"
       transform="translate(435.181,180.807)">
      <path
         id="path62"
         d="M 0,3.701 C 0,3.701 3.062,2.774 3.062,2.774 C 3.062,2.774 5.009,9.217 5.009,9.217 C 5.009,9.217 8.587,1.102 8.587,1.102 C 8.587,1.102 12.237,0 12.237,0 C 12.237,0 8.005,8.742 8.005,8.742 C 8.005,8.742 17.191,14.978 17.191,14.978 C 17.191,14.978 13.305,16.154 13.305,16.154 C 13.305,16.154 5.42,10.341 5.42,10.341 C 5.42,10.341 7.628,17.871 7.628,17.871 C 7.628,17.871 4.565,18.797 4.565,18.797 C 4.565,18.797 0,3.701 0,3.701 z" />
    </g>
    <g
       id="g64"
       style="fill:#d10b1f;fill-rule:nonzero;stroke:none;stroke-width:1;stroke-linecap:butt;stroke-linejoin:miter;stroke-dasharray:none"
       transform="translate(449.466,176.225)">
      <path
         id="path66"
         d="M 0,3.962 C 0,3.962 3.062,3.035 3.062,3.035 C 3.062,3.035 5.406,10.791 5.406,10.791 C 5.406,10.791 6.444,14.474 6.444,14.474 C 6.444,14.474 6.937,11.935 6.937,11.935 C 6.937,11.935 9.43,1.109 9.43,1.109 C 9.43,1.109 13.098,0 13.098,0 C 13.098,0 17.665,15.096 17.665,15.096 C 17.665,15.096 14.603,16.021 14.603,16.021 C 14.603,16.021 12.251,8.238 12.251,8.238 C 12.251,8.238 11.22,4.573 11.22,4.573 C 11.22,4.573 10.813,7.188 10.813,7.188 C 10.813,7.188 8.247,17.951 8.247,17.951 C 8.247,17.951 4.566,19.058 4.566,19.058 C 4.566,19.058 0,3.962 0,3.962 z" />
    </g>
    <g
       id="g68"
       style="fill:#d10b1f;fill-rule:nonzero;stroke:none;stroke-width:1;stroke-linecap:butt;stroke-linejoin:miter;stroke-dasharray:none"
       transform="translate(466.27,172.067)">
      <path
         id="path70"
         d="M 10.038,0 C 10.038,0 14.605,15.097 14.605,15.097 C 14.605,15.097 11.543,16.023 11.543,16.023 C 11.543,16.023 9.848,10.42 9.848,10.42 C 9.848,10.42 8.015,10.975 8.015,10.975 C 8.015,10.975 6.776,17.464 6.776,17.464 C 6.776,17.464 3.111,18.573 3.111,18.573 C 3.111,18.573 4.834,11.274 4.834,11.274 C 4.032,11.265 3.3,11.079 2.64,10.713 C 1.652,10.149 0.966,9.227 0.576,7.947 C 0,6.035 0.379,4.467 1.721,3.246 C 2.52,2.517 3.66,1.929 5.143,1.481 C 5.143,1.481 10.038,0 10.038,0 z M 9.126,8.034 C 9.126,8.034 7.697,3.313 7.697,3.313 C 7.697,3.313 5.953,3.841 5.953,3.841 C 5.062,4.11 4.431,4.523 4.06,5.08 C 3.69,5.637 3.619,6.296 3.847,7.054 C 4.055,7.741 4.418,8.224 4.943,8.502 C 5.578,8.841 6.397,8.859 7.403,8.555 C 7.403,8.555 9.126,8.034 9.126,8.034 z" />
    </g>
    <g
       id="g72"
       style="fill:#0066a3;fill-rule:nonzero;stroke:none;stroke-width:1;stroke-linecap:butt;stroke-linejoin:miter;stroke-dasharray:none"
       transform="translate(338.389,119.192)">
      <path
         id="path74"
         d="M 102.076,1.255 C 102.076,1.255 57.227,14.82 57.227,14.82 C 57.227,14.82 64.88,40.125 64.88,40.125 C 64.88,40.125 72.755,37.731 76.021,36.738 C 77.43,41.397 79.736,49.017 81.143,53.67 C 75.32,55.43 56.566,61.098 50.744,62.857 C 49.337,58.204 47.033,50.583 45.624,45.925 C 48.897,44.94 56.781,42.567 56.781,42.567 C 56.781,42.567 49.129,17.263 49.129,17.263 C 49.129,17.263 0.129,32.082 0.129,32.082 C 0.129,32.082 7.781,57.387 7.781,57.387 C 7.781,57.387 15.655,54.994 18.923,54 C 20.332,58.659 22.637,66.283 24.045,70.935 C 18.009,72.762 0,78.214 0,78.214 C 0,78.214 2.512,86.513 2.512,86.513 C 2.512,86.513 34.855,76.723 34.855,76.723 C 34.855,76.723 24.711,43.18 24.711,43.18 C 24.711,43.18 16.836,45.572 13.569,46.565 C 12.597,43.354 11.909,41.08 10.94,37.873 C 16.874,36.078 37.402,29.869 43.337,28.075 C 44.307,31.282 44.996,33.555 45.965,36.766 C 42.694,37.751 34.809,40.124 34.809,40.124 C 34.809,40.124 44.954,73.666 44.954,73.666 C 44.954,73.666 91.954,59.463 91.954,59.463 C 91.954,59.463 81.809,25.917 81.809,25.917 C 81.809,25.917 73.934,28.31 70.668,29.302 C 69.696,26.091 69.007,23.818 68.039,20.611 C 73.972,18.816 94.501,12.606 100.436,10.812 C 101.406,14.019 102.094,16.293 103.064,19.503 C 99.793,20.489 91.908,22.862 91.908,22.862 C 91.908,22.862 102.053,56.405 102.053,56.405 C 102.053,56.405 146.98,42.819 146.98,42.819 C 146.98,42.819 144.47,34.518 144.47,34.518 C 144.47,34.518 114.541,43.57 107.842,45.594 C 106.435,40.941 104.132,33.321 102.723,28.662 C 105.996,27.677 113.88,25.305 113.88,25.305 C 113.88,25.305 106.227,0 106.227,0 C 106.227,0 102.076,1.255 102.076,1.255 z" />
    </g>
    <g
       id="g76"
       style="fill:#0066a3;fill-rule:nonzero;stroke:none;stroke-width:1;stroke-linecap:butt;stroke-linejoin:miter;stroke-dasharray:none"
       transform="translate(50.9756,119.192)">
      <path
         id="path78"
         d="M 39.4964,4.151 C 39.4964,4.151 33.0994,25.305 33.0994,25.305 C 33.0994,25.305 40.9834,27.677 44.2554,28.662 C 42.8464,33.321 40.5434,40.941 39.1354,45.594 C 32.4384,43.57 2.5098,34.518 2.5098,34.518 C 2.5098,34.518 0,42.819 0,42.819 C 0,42.819 44.9264,56.405 44.9264,56.405 C 44.9264,56.405 55.0704,22.862 55.0704,22.862 C 55.0704,22.862 47.1864,20.489 43.9144,19.503 C 44.8834,16.293 45.5714,14.019 46.5424,10.812 C 52.4754,12.606 73.0064,18.816 78.9394,20.611 C 77.9694,23.818 77.2834,26.091 76.3114,29.302 C 73.0444,28.31 65.1704,25.917 65.1704,25.917 C 65.1704,25.917 55.0244,59.463 55.0244,59.463 C 55.0244,59.463 102.025,73.666 102.025,73.666 C 102.025,73.666 112.169,40.124 112.169,40.124 C 112.169,40.124 104.285,37.751 101.012,36.766 C 101.982,33.555 102.67,31.282 103.641,28.075 C 109.575,29.869 130.105,36.078 136.039,37.873 C 135.068,41.08 134.381,43.354 133.41,46.565 C 130.142,45.572 122.268,43.18 122.268,43.18 C 122.268,43.18 112.123,76.723 112.123,76.723 C 112.123,76.723 144.466,86.513 144.466,86.513 C 144.466,86.513 146.978,78.214 146.978,78.214 C 146.978,78.214 128.968,72.762 122.934,70.935 C 124.341,66.283 126.647,58.659 128.056,54 C 131.323,54.994 139.197,57.387 139.197,57.387 C 139.197,57.387 146.849,32.082 146.849,32.082 C 146.849,32.082 97.8494,17.263 97.8494,17.263 C 97.8494,17.263 90.1984,42.567 90.1984,42.567 C 90.1984,42.567 98.0834,44.94 101.354,45.925 C 99.9464,50.583 97.6414,58.204 96.2344,62.857 C 90.4144,61.098 71.6584,55.43 65.8364,53.67 C 67.2434,49.017 69.5474,41.397 70.9574,36.738 C 74.2244,37.731 82.0984,40.125 82.0984,40.125 C 82.0984,40.125 89.7504,14.82 89.7504,14.82 C 89.7504,14.82 40.7514,0 40.7514,0 C 40.7514,0 39.4964,4.151 39.4964,4.151 z" />
    </g>
    <g
       id="g80"
       style="fill:#d10b1f;fill-rule:nonzero;stroke:none;stroke-width:1;stroke-linecap:butt;stroke-linejoin:miter;stroke-dasharray:none"
       transform="translate(46.6436,169.38)">
      <path
         id="path82"
         d="M 4.5664,0 C 4.5664,0 9.0332,1.351 9.0332,1.351 C 11.249,2.021 12.6709,3.11 13.2978,4.617 C 13.7168,5.622 13.7548,6.691 13.4111,7.826 C 13.0283,9.091 12.2802,10.032 11.1669,10.651 C 9.9023,11.35 8.4277,11.445 6.7441,10.936 C 6.7441,10.936 4.7793,10.343 4.7793,10.343 C 4.7793,10.343 3.0615,16.023 3.0615,16.023 C 3.0615,16.023 0,15.097 0,15.097 C 0,15.097 4.5664,0 4.5664,0 z M 5.5009,7.956 C 5.5009,7.956 6.9033,8.381 6.9033,8.381 C 7.7226,8.628 8.4248,8.591 9.0078,8.268 C 9.5927,7.948 9.9882,7.445 10.1943,6.76 C 10.3877,6.118 10.3574,5.548 10.0996,5.049 C 9.7959,4.444 9.1992,4.007 8.3076,3.736 C 8.3076,3.736 6.9052,3.313 6.9052,3.313 C 6.9052,3.313 5.5009,7.956 5.5009,7.956 z" />
    </g>
    <g
       id="g84"
       style="fill:#d10b1f;fill-rule:nonzero;stroke:none;stroke-width:1;stroke-linecap:butt;stroke-linejoin:miter;stroke-dasharray:none"
       transform="translate(59.0205,173.124)">
      <path
         id="path86"
         d="M 4.5674,0 C 4.5674,0 13.5945,2.73 13.5945,2.73 C 13.5945,2.73 12.7875,5.402 12.7875,5.402 C 12.7875,5.402 6.8193,3.598 6.8193,3.598 C 6.8193,3.598 5.793,6.996 5.793,6.996 C 5.793,6.996 11.2188,8.638 11.2188,8.638 C 11.2188,8.638 10.4658,11.128 10.4658,11.128 C 10.4658,11.128 5.0391,9.485 5.0391,9.485 C 5.0391,9.485 3.8691,13.351 3.8691,13.351 C 3.8691,13.351 9.8359,15.155 9.8359,15.155 C 9.8359,15.155 9.0283,17.827 9.0283,17.827 C 9.0283,17.827 0,15.098 0,15.098 C 0,15.098 4.5674,0 4.5674,0 z" />
    </g>
    <g
       id="g88"
       style="fill:#d10b1f;fill-rule:nonzero;stroke:none;stroke-width:1;stroke-linecap:butt;stroke-linejoin:miter;stroke-dasharray:none"
       transform="translate(71.188,177.918)">
      <path
         id="path90"
         d="M 10.969,13.988 C 10.969,13.988 10.386,16.617 10.386,16.617 C 9.722,16.635 9.034,16.6 8.324,16.511 C 7.612,16.421 6.932,16.277 6.285,16.082 C 4.041,15.403 2.392,14.206 1.34,12.488 C 0.202,10.636 0,8.494 0.736,6.061 C 1.458,3.671 2.782,1.998 4.708,1.04 C 6.631,0.083 8.904,0 11.523,0.792 C 12.14,0.978 12.704,1.197 13.209,1.443 C 13.716,1.69 14.216,1.983 14.711,2.32 C 14.711,2.32 13.798,4.87 13.798,4.87 C 12.977,4.212 12.034,3.722 10.969,3.399 C 9.373,2.916 7.935,2.981 6.659,3.594 C 5.38,4.207 4.493,5.342 3.991,6.998 C 3.456,8.771 3.611,10.281 4.458,11.529 C 5.167,12.561 6.219,13.288 7.615,13.71 C 8.262,13.905 8.856,14.018 9.397,14.047 C 9.938,14.076 10.462,14.057 10.969,13.988 z" />
    </g>
    <g
       id="g92"
       style="fill:#d10b1f;fill-rule:nonzero;stroke:none;stroke-width:1;stroke-linecap:butt;stroke-linejoin:miter;stroke-dasharray:none"
       transform="translate(83.379,180.492)">
      <path
         id="path94"
         d="M 4.565,0 C 4.565,0 16.68,3.664 16.68,3.664 C 16.68,3.664 12.114,18.76 12.114,18.76 C 12.114,18.76 9.053,17.835 9.053,17.835 C 9.053,17.835 12.866,5.229 12.866,5.229 C 12.866,5.229 6.874,3.415 6.874,3.415 C 6.874,3.415 3.06,16.023 3.06,16.023 C 3.06,16.023 0,15.097 0,15.097 C 0,15.097 4.565,0 4.565,0 z" />
    </g>
    <g
       id="g96"
       style="fill:#d10b1f;fill-rule:nonzero;stroke:none;stroke-width:1;stroke-linecap:butt;stroke-linejoin:miter;stroke-dasharray:none"
       transform="translate(98.639,184.545)">
      <path
         id="path98"
         d="M 2.707,0 C 2.707,0 6.138,1.038 6.138,1.038 C 6.138,1.038 7.195,8.368 7.195,8.368 C 7.195,8.368 7.36,10.159 7.36,10.159 C 7.36,10.159 8.561,8.758 8.561,8.758 C 8.561,8.758 13.368,3.225 13.368,3.225 C 13.368,3.225 16.389,4.139 16.389,4.139 C 16.389,4.139 6.457,15.173 6.457,15.173 C 5.755,15.934 5.036,16.414 4.3,16.616 C 3.668,16.785 2.949,16.749 2.142,16.506 C 1.668,16.362 1.273,16.198 0.96,16.018 C 0.645,15.837 0.325,15.61 0,15.34 C 0,15.34 1.041,13.143 1.041,13.143 C 1.389,13.493 1.787,13.736 2.233,13.872 C 2.65,13.998 2.982,14.043 3.228,14.008 C 3.589,13.96 3.927,13.748 4.245,13.373 C 4.245,13.373 4.983,12.49 4.983,12.49 C 4.983,12.49 2.707,0 2.707,0 z" />
    </g>
    <g
       id="g100"
       style="fill:#d10b1f;fill-rule:nonzero;stroke:none;stroke-width:1;stroke-linecap:butt;stroke-linejoin:miter;stroke-dasharray:none"
       transform="translate(111.906,189.122)">
      <path
         id="path102"
         d="M 4.567,0 C 4.567,0 14.237,2.924 14.237,2.924 C 14.237,2.924 13.427,5.596 13.427,5.596 C 13.427,5.596 6.82,3.598 6.82,3.598 C 6.82,3.598 5.87,6.735 5.87,6.735 C 5.87,6.735 8.331,7.48 8.331,7.48 C 10.23,8.054 11.483,8.998 12.091,10.314 C 12.597,11.393 12.642,12.617 12.228,13.985 C 11.876,15.151 11.192,16.013 10.175,16.569 C 8.915,17.257 7.365,17.322 5.524,16.766 C 5.524,16.766 0,15.095 0,15.095 C 0,15.095 4.567,0 4.567,0 z M 5.149,9.121 C 5.149,9.121 3.783,13.635 3.783,13.635 C 3.783,13.635 5.681,14.208 5.681,14.208 C 6.341,14.408 6.922,14.459 7.423,14.36 C 8.239,14.201 8.784,13.67 9.058,12.767 C 9.331,11.864 9.178,11.122 8.602,10.541 C 8.24,10.181 7.721,9.899 7.046,9.695 C 7.046,9.695 5.149,9.121 5.149,9.121 z" />
    </g>
    <g
       id="g104"
       style="fill:#d10b1f;fill-rule:nonzero;stroke:none;stroke-width:1;stroke-linecap:butt;stroke-linejoin:miter;stroke-dasharray:none"
       transform="translate(123.809,193.632)">
      <path
         id="path106"
         d="M 7.578,0 C 7.578,0 17.486,2.997 17.486,2.997 C 17.486,2.997 12.92,18.093 12.92,18.093 C 12.92,18.093 9.86,17.167 9.86,17.167 C 9.86,17.167 13.618,4.742 13.618,4.742 C 13.618,4.742 9.648,3.543 9.648,3.543 C 9.648,3.543 8.735,6.563 8.735,6.563 C 8.021,8.925 7.446,10.589 7.011,11.556 C 6.372,12.997 5.64,13.983 4.817,14.52 C 3.894,15.121 2.761,15.219 1.42,14.812 C 1.16,14.734 0.947,14.657 0.78,14.584 C 0.614,14.509 0.353,14.381 0,14.195 C 0,14.195 0.853,11.839 0.853,11.839 C 0.974,11.905 1.124,11.977 1.304,12.054 C 1.484,12.131 1.596,12.177 1.638,12.189 C 2.469,12.44 3.212,12.058 3.862,11.046 C 4.335,10.308 4.822,9.112 5.322,7.456 C 5.322,7.456 5.42,7.133 5.42,7.133 C 5.42,7.133 5.507,6.847 5.507,6.847 C 5.507,6.847 5.586,6.589 5.586,6.589 C 5.67,6.303 5.757,6.018 5.842,5.738 C 5.927,5.458 6.01,5.182 6.093,4.909 C 6.093,4.909 7.578,0 7.578,0 z" />
    </g>
    <g
       id="g108"
       style="fill:#d10b1f;fill-rule:nonzero;stroke:none;stroke-width:1;stroke-linecap:butt;stroke-linejoin:miter;stroke-dasharray:none"
       transform="translate(139.33,197.415)">
      <path
         id="path110"
         d="M 4.566,0 C 4.566,0 7.628,0.926 7.628,0.926 C 7.628,0.926 5.281,8.681 5.281,8.681 C 5.281,8.681 4.105,12.321 4.105,12.321 C 4.105,12.321 5.921,10.481 5.921,10.481 C 5.921,10.481 13.997,2.853 13.997,2.853 C 13.997,2.853 17.665,3.962 17.665,3.962 C 17.665,3.962 13.1,19.059 13.1,19.059 C 13.1,19.059 10.039,18.133 10.039,18.133 C 10.039,18.133 12.393,10.349 12.393,10.349 C 12.393,10.349 13.566,6.728 13.566,6.728 C 13.566,6.728 11.777,8.678 11.777,8.678 C 11.777,8.678 3.679,16.216 3.679,16.216 C 3.679,16.216 0,15.096 0,15.096 C 0,15.096 4.566,0 4.566,0 z" />
    </g>
    <g
       id="g112"
       style="fill:#d10b1f;fill-rule:nonzero;stroke:none;stroke-width:1;stroke-linecap:butt;stroke-linejoin:miter;stroke-dasharray:none"
       transform="translate(155.018,202.159)">
      <path
         id="path114"
         d="M 4.565,0 C 4.565,0 7.626,0.927 7.626,0.927 C 7.626,0.927 5.677,7.368 5.677,7.368 C 5.677,7.368 13.153,2.598 13.153,2.598 C 13.153,2.598 16.801,3.701 16.801,3.701 C 16.801,3.701 8.432,8.631 8.432,8.631 C 8.432,8.631 12.625,18.915 12.625,18.915 C 12.625,18.915 8.739,17.739 8.739,17.739 C 8.739,17.739 5.396,8.531 5.396,8.531 C 5.396,8.531 3.059,16.022 3.059,16.022 C 3.059,16.022 0,15.097 0,15.097 C 0,15.097 4.565,0 4.565,0 z" />
    </g>
    <g
       id="g116"
       style="fill:#d10b1f;fill-rule:nonzero;stroke:none;stroke-width:1;stroke-linecap:butt;stroke-linejoin:miter;stroke-dasharray:none"
       transform="translate(168.079,207.932)">
      <path
         id="path118"
         d="M 10.586,0 C 10.586,0 14.082,1.056 14.082,1.056 C 14.082,1.056 15.517,17.968 15.517,17.968 C 15.517,17.968 12.063,16.923 12.063,16.923 C 12.063,16.923 11.817,13.14 11.817,13.14 C 11.817,13.14 5.581,11.254 5.581,11.254 C 5.581,11.254 3.28,14.267 3.28,14.267 C 3.28,14.267 0,13.276 0,13.276 C 0,13.276 10.586,0 10.586,0 z M 7.313,9.032 C 7.313,9.032 11.673,10.35 11.673,10.35 C 11.673,10.35 11.31,3.531 11.31,3.531 C 11.31,3.531 7.313,9.032 7.313,9.032 z" />
    </g>
    <g
       id="g120"
       style="fill:#ffffff;fill-rule:nonzero;stroke:none;stroke-width:1;stroke-linecap:butt;stroke-linejoin:miter;stroke-dasharray:none"
       transform="translate(192.26,131.63)">
      <path
         id="path122"
         d="M 151.743,75.872 C 151.743,117.774 117.779,151.743 75.873,151.743 C 33.968,151.743 0,117.774 0,75.872 C 0,33.97 33.968,0 75.873,0 C 117.779,0 151.743,33.97 151.743,75.872 z" />
    </g>
    <g
       id="g124"
       style="fill:#161413;fill-rule:nonzero;stroke:none;stroke-width:1;stroke-linecap:butt;stroke-linejoin:miter;stroke-dasharray:none"
       transform="translate(190.959,130.329)">
      <path
         id="path126"
         d="M 0,77.173 C 0,119.726 34.62,154.345 77.174,154.345 C 119.726,154.345 154.345,119.726 154.345,77.173 C 154.345,34.62 119.726,0 77.174,0 C 34.62,0 0,34.62 0,77.173 z M 2.602,77.173 C 2.602,36.054 36.055,2.602 77.174,2.602 C 118.294,2.602 151.743,36.054 151.743,77.173 C 151.743,118.291 118.294,151.743 77.174,151.743 C 36.055,151.743 2.602,118.291 2.602,77.173 z" />
    </g>
    <g
       id="g128"
       style="fill:#161413;fill-rule:nonzero;stroke:none;stroke-width:1;stroke-linecap:butt;stroke-linejoin:miter;stroke-dasharray:none"
       transform="translate(266.824,153.294)">
      <path
         id="path130"
         d="M 0,0 C 0,0 0,38.77 0,38.77 C 0,38.77 2.602,38.77 2.602,38.77 C 2.602,38.77 2.602,0 2.602,0 C 2.602,0 0,0 0,0 z" />
    </g>
    <g
       id="g132"
       style="fill:#161413;fill-rule:nonzero;stroke:none;stroke-width:1;stroke-linecap:butt;stroke-linejoin:miter;stroke-dasharray:none"
       transform="translate(242.688,185.058)">
      <path
         id="path134"
         d="M 9.715,48.381 C 9.715,48.381 0,18.479 0,18.479 C 0,18.479 25.437,0 25.437,0 C 25.437,0 50.872,18.479 50.872,18.479 C 50.872,18.479 41.158,48.381 41.158,48.381 C 41.158,48.381 9.715,48.381 9.715,48.381 z" />
    </g>
    <g
       id="g136"
       style="fill:#161413;fill-rule:nonzero;stroke:none;stroke-width:1;stroke-linecap:butt;stroke-linejoin:miter;stroke-dasharray:none"
       transform="translate(289.523,192.4)">
      <path
         id="path138"
         d="M 0,11.129 C 0,11.129 0.867,13.583 0.867,13.583 C 0.867,13.583 32.447,2.454 32.447,2.454 C 32.447,2.454 31.581,0 31.581,0 C 31.581,0 0,11.129 0,11.129 z" />
    </g>
    <g
       id="g140"
       style="fill:#161413;fill-rule:nonzero;stroke:none;stroke-width:1;stroke-linecap:butt;stroke-linejoin:miter;stroke-dasharray:none"
       transform="translate(280.041,229.034)">
      <path
         id="path142"
         d="M 0,1.598 C 0,1.598 22.186,30.141 22.186,30.141 C 22.186,30.141 24.239,28.544 24.239,28.544 C 24.239,28.544 2.054,0 2.054,0 C 2.054,0 0,1.598 0,1.598 z" />
    </g>
    <g
       id="g144"
       style="fill:#161413;fill-rule:nonzero;stroke:none;stroke-width:1;stroke-linecap:butt;stroke-linejoin:miter;stroke-dasharray:none"
       transform="translate(318.646,167.775)">
      <path
         id="path146"
         d="M 14.146,0 C 14.146,0 2.531,1.282 2.531,1.282 C 2.531,1.282 0,26.864 0,26.864 C 0,26.864 19.294,48.254 19.294,48.254 C 19.294,48.254 25.208,43.449 25.208,43.449 C 25.208,43.449 26.523,33.658 22.476,18.915 C 18.427,4.173 14.146,0 14.146,0 z" />
    </g>
    <g
       id="g148"
       style="fill:#161413;fill-rule:nonzero;stroke:none;stroke-width:1;stroke-linecap:butt;stroke-linejoin:miter;stroke-dasharray:none"
       transform="translate(284.32,250.139)">
      <path
         id="path150"
         d="M 0,31.508 C 0,31.508 16.766,5.493 16.766,5.493 C 16.766,5.493 45.023,0 45.023,0 C 45.023,0 45.437,1.357 45.437,1.357 C 45.437,1.357 29.125,26.557 0,31.508 z" />
    </g>
    <g
       id="g152"
       style="fill:#161413;fill-rule:nonzero;stroke:none;stroke-width:1;stroke-linecap:butt;stroke-linejoin:miter;stroke-dasharray:none"
       transform="translate(244.176,131.164)">
      <path
         id="path154"
         d="M 11.347,1.399 C 11.347,1.399 23.596,0 23.596,0 C 23.596,0 33.785,0.857 33.785,0.857 C 33.785,0.857 44.469,3.284 44.469,3.284 C 44.469,3.284 47.895,17.297 47.895,17.297 C 47.895,17.297 23.949,27.988 23.949,27.988 C 23.949,27.988 0,17.297 0,17.297 C 0,17.297 3.46,3.14 3.46,3.14 C 3.46,3.14 11.347,1.399 11.347,1.399 z" />
    </g>
    <g
       id="g156"
       style="fill:#161413;fill-rule:nonzero;stroke:none;stroke-width:1;stroke-linecap:butt;stroke-linejoin:miter;stroke-dasharray:none"
       transform="translate(214.298,192.4)">
      <path
         id="path158"
         d="M 0,2.454 C 0,2.454 31.582,13.583 31.582,13.583 C 31.582,13.583 32.445,11.129 32.445,11.129 C 32.445,11.129 0.864,0 0.864,0 C 0.864,0 0,2.454 0,2.454 z" />
    </g>
    <g
       id="g160"
       style="fill:#161413;fill-rule:nonzero;stroke:none;stroke-width:1;stroke-linecap:butt;stroke-linejoin:miter;stroke-dasharray:none"
       transform="translate(231.986,229.034)">
      <path
         id="path162"
         d="M 0,28.544 C 0,28.544 2.056,30.141 2.056,30.141 C 2.056,30.141 24.243,1.598 24.243,1.598 C 24.243,1.598 22.188,0 22.188,0 C 22.188,0 0,28.544 0,28.544 z" />
    </g>
    <g
       id="g164"
       style="fill:#161413;fill-rule:nonzero;stroke:none;stroke-width:1;stroke-linecap:butt;stroke-linejoin:miter;stroke-dasharray:none"
       transform="translate(191.098,167.775)">
      <path
         id="path166"
         d="M 12.378,0 C 12.378,0 23.993,1.282 23.993,1.282 C 23.993,1.282 26.524,26.864 26.524,26.864 C 26.524,26.864 7.229,48.254 7.229,48.254 C 7.229,48.254 1.314,43.449 1.314,43.449 C 1.314,43.449 0,33.658 4.048,18.915 C 8.096,4.173 12.378,0 12.378,0 z" />
    </g>
    <g
       id="g168"
       style="fill:#161413;fill-rule:nonzero;stroke:none;stroke-width:1;stroke-linecap:butt;stroke-linejoin:miter;stroke-dasharray:none"
       transform="translate(206.511,250.139)">
      <path
         id="path170"
         d="M 45.435,31.508 C 45.435,31.508 28.672,5.493 28.672,5.493 C 28.672,5.493 0.415,0 0.415,0 C 0.415,0 0,1.357 0,1.357 C 0,1.357 16.312,26.557 45.435,31.508 z" />
    </g>
    <g
       id="g172"
       style="fill:#161413;fill-rule:nonzero;stroke:none;stroke-width:1;stroke-linecap:butt;stroke-linejoin:miter;stroke-dasharray:none"
       transform="translate(196.984,142.861)">
      <path
         id="path174"
         d="M 0,72.738 C 0,86.499 3.778,99.899 10.923,111.485 C 10.923,111.485 13.137,110.12 13.137,110.12 C 6.246,98.944 2.602,86.017 2.602,72.738 C 2.602,34.51 32.988,3.047 70.334,2.602 C 70.334,2.602 72.035,2.603 72.035,2.603 C 109.344,3.086 139.696,34.549 139.696,72.738 C 139.696,86.017 136.055,98.944 129.162,110.12 C 129.162,110.12 131.376,111.485 131.376,111.485 C 138.521,99.899 142.297,86.499 142.297,72.738 C 142.297,33.133 110.794,0.504 72.071,0.001 C 72.071,0.001 70.303,0 70.303,0 C 31.538,0.463 0,33.093 0,72.738 z" />
    </g>
    <g
       id="g176"
       style="fill:#0066a3;fill-rule:nonzero;stroke:none;stroke-width:1;stroke-linecap:butt;stroke-linejoin:miter;stroke-dasharray:none"
       transform="translate(280.057,487.006)">
      <path
         id="path178"
         d="M 20.259,39.363 C 20.259,39.363 23.881,29.134 23.881,29.134 C 25.058,25.813 28.231,19.566 36.234,15.084 C 38.439,13.848 40.559,12.943 42.491,12.244 C 40.53,17.748 36.611,28.742 32.834,39.346 C 32.834,39.346 20.259,39.363 20.259,39.363 z M 10.094,68.098 C 10.094,68.098 16.88,48.925 16.88,48.925 C 16.88,48.925 29.42,48.93 29.42,48.93 C 27.41,54.566 25.663,59.467 24.579,62.51 C 23.841,64.583 22.628,68.093 22.628,68.093 C 22.628,68.093 32.714,68.096 32.714,68.096 C 32.714,68.096 56.979,0 56.979,0 C 56.979,0 49.513,0.719 49.513,0.719 C 49.161,0.751 40.787,1.608 31.568,6.771 C 20.843,12.781 16.514,21.371 14.888,25.957 C 14.888,25.957 1.621,63.457 1.621,63.457 C 1.621,63.457 0,68.093 0,68.093 C 0,68.093 10.094,68.098 10.094,68.098 z" />
    </g>
    <g
       id="g180"
       style="fill:#0066a3;fill-rule:nonzero;stroke:none;stroke-width:1;stroke-linecap:butt;stroke-linejoin:miter;stroke-dasharray:none"
       transform="translate(163.459,486.994)">
      <path
         id="path182"
         d="M 10.178,68.101 C 11.179,65.26 14.384,56.166 16.965,48.845 C 21.43,48.845 31.571,48.845 31.571,48.845 C 38.802,48.733 41.308,45.796 43.663,40.051 C 43.663,40.051 43.708,39.941 43.708,39.941 C 43.708,39.941 53.404,12.445 53.404,12.445 C 53.687,11.605 54.28,9.851 54.28,7.86 C 54.28,6.349 53.938,4.701 52.86,3.214 C 51.302,1.067 48.753,0 45.281,0.041 C 45.281,0.041 24.051,0.041 24.051,0.041 C 24.051,0.041 0,68.105 0,68.105 C 0,68.105 10.178,68.101 10.178,68.101 z M 31.499,39.287 C 31.499,39.287 25.579,39.287 20.334,39.287 C 25.553,24.481 29.786,12.468 30.799,9.6 C 33.94,9.6 39.264,9.6 42.278,9.6 C 43.983,9.598 44.118,9.868 43.657,11.403 C 41.54,17.404 34.888,36.264 34.805,36.502 C 34.54,37.143 34.323,37.629 34.145,37.995 C 33.686,38.945 33.794,39.271 31.499,39.287 z" />
    </g>
    <g
       id="g184"
       style="fill:#0066a3;fill-rule:nonzero;stroke:none;stroke-width:1;stroke-linecap:butt;stroke-linejoin:miter;stroke-dasharray:none"
       transform="translate(202.575,487.006)">
      <path
         id="path186"
         d="M 20.26,39.363 C 20.26,39.363 23.882,29.134 23.882,29.134 C 25.06,25.813 28.233,19.566 36.235,15.084 C 38.44,13.848 40.56,12.943 42.491,12.244 C 40.531,17.748 36.613,28.742 32.834,39.346 C 32.834,39.346 20.26,39.363 20.26,39.363 z M 10.095,68.098 C 10.095,68.098 16.881,48.925 16.881,48.925 C 16.881,48.925 29.419,48.93 29.419,48.93 C 27.41,54.566 25.665,59.467 24.579,62.51 C 23.841,64.583 22.628,68.093 22.628,68.093 C 22.628,68.093 32.714,68.096 32.714,68.096 C 32.714,68.096 56.982,0 56.982,0 C 56.982,0 49.514,0.719 49.514,0.719 C 49.163,0.751 40.787,1.608 31.569,6.771 C 20.845,12.781 16.516,21.371 14.89,25.957 C 14.89,25.957 1.621,63.457 1.621,63.457 C 1.621,63.457 0,68.093 0,68.093 C 0,68.093 10.095,68.098 10.095,68.098 z" />
    </g>
    <g
       id="g188"
       style="fill:#0066a3;fill-rule:nonzero;stroke:none;stroke-width:1;stroke-linecap:butt;stroke-linejoin:miter;stroke-dasharray:none"
       transform="translate(318.854,487.014)">
      <path
         id="path190"
         d="M 29.899,48.857 C 29.899,48.857 23.104,68.093 23.104,68.093 C 23.104,68.093 33.223,68.088 33.223,68.088 C 33.223,68.088 57.283,0.003 57.283,0.003 C 57.283,0.003 47.179,0 47.179,0 C 47.179,0 33.279,39.3 33.279,39.3 C 33.279,39.3 20.29,39.303 20.29,39.303 C 20.29,39.303 34.175,0.006 34.175,0.006 C 34.175,0.006 24.052,0.02 24.052,0.02 C 24.052,0.02 0,68.081 0,68.081 C 0,68.081 10.109,68.094 10.109,68.094 C 10.109,68.094 16.911,48.857 16.911,48.857 C 16.911,48.857 29.899,48.857 29.899,48.857 z" />
    </g>
    <g
       id="g192"
       style="fill:#0066a3;fill-rule:nonzero;stroke:none;stroke-width:1;stroke-linecap:butt;stroke-linejoin:miter;stroke-dasharray:none"
       transform="translate(241.231,487.033)">
      <path
         id="path194"
         d="M 22.602,68.066 C 22.602,68.066 23.832,64.541 24.58,62.448 C 28.149,52.435 38.784,22.601 42.477,12.239 C 40.544,12.941 38.425,13.842 36.22,15.077 C 28.217,19.561 25.046,25.803 23.868,29.122 C 23.868,29.122 10.078,68.071 10.078,68.071 C 10.078,68.071 0,68.066 0,68.066 C 0,68.066 14.874,25.948 14.874,25.948 C 16.5,21.363 20.83,12.778 31.554,6.771 C 40.772,1.609 49.148,0.75 49.498,0.717 C 49.498,0.717 56.966,0 56.966,0 C 56.966,0 32.689,68.076 32.689,68.076 C 32.689,68.076 22.602,68.066 22.602,68.066 z" />
    </g>
    <g
       id="g196"
       style="fill:#d10b1f;fill-rule:nonzero;stroke:none;stroke-width:1;stroke-linecap:butt;stroke-linejoin:miter;stroke-dasharray:none"
       transform="translate(163.323,586.174)">
      <path
         id="path198"
         d="M 4.282,2.567 C 3.904,3.982 2.722,5.13 1.645,5.13 C 0.567,5.13 0,3.982 0.38,2.567 C 0.76,1.149 1.942,0 3.019,0 C 4.096,0 4.663,1.149 4.282,2.567 z" />
    </g>
    <g
       id="g200"
       style="fill:#d10b1f;fill-rule:nonzero;stroke:none;stroke-width:1;stroke-linecap:butt;stroke-linejoin:miter;stroke-dasharray:none"
       transform="translate(217.586,569.19)">
      <path
         id="path202"
         d="M 23.495,0 C 23.495,0 21.896,0 21.896,0 C 13.072,0 8.614,1.872 6.991,6.252 C 6.991,6.252 3.948,14.743 3.948,14.743 C 2.839,17.73 0.408,17.797 0,17.778 C 0,17.778 0.002,22.096 0.002,22.096 C 1.958,22.267 6.151,21.259 8.021,16.231 C 8.021,16.231 11.065,7.738 11.065,7.738 C 11.415,6.793 12.318,4.637 20.405,4.387 C 18.882,8.664 14.064,22.117 14.064,22.117 C 14.064,22.117 18.697,22.114 18.697,22.114 C 18.697,22.114 26.568,0 26.568,0 C 26.568,0 23.495,0 23.495,0 z" />
    </g>
    <g
       id="g204"
       style="fill:#d10b1f;fill-rule:nonzero;stroke:none;stroke-width:1;stroke-linecap:butt;stroke-linejoin:miter;stroke-dasharray:none"
       transform="translate(241.515,569.19)">
      <path
         id="path206"
         d="M 7.714,0.006 C 7.714,0.006 0,22.114 0,22.114 C 0,22.114 4.336,22.114 4.336,22.114 C 4.336,22.114 13.445,14.117 19.715,8.628 C 18.202,13.058 16.16,19.033 15.105,22.118 C 15.105,22.118 19.686,22.118 19.686,22.118 C 19.686,22.118 27.29,0 27.29,0 C 27.29,0 22.954,0 22.954,0 C 22.954,0 13.89,7.965 7.603,13.47 C 9.126,9.11 11.163,3.278 12.307,0 C 12.307,0 7.714,0.006 7.714,0.006 z" />
    </g>
    <g
       id="g208"
       style="fill:#d10b1f;fill-rule:nonzero;stroke:none;stroke-width:1;stroke-linecap:butt;stroke-linejoin:miter;stroke-dasharray:none"
       transform="translate(150.623,575.085)">
      <path
         id="path210"
         d="M 4.579,3.311 C 4.579,3.311 0,16.203 0,16.203 C 0,16.203 4.59,16.211 4.59,16.211 C 4.59,16.211 8.628,4.86 8.628,4.86 C 8.677,4.747 8.836,4.357 10.099,4.368 C 10.099,4.368 16.332,4.368 16.332,4.368 C 16.332,4.368 16.332,0.032 16.332,0.032 C 16.332,0.032 10.117,0.032 10.117,0.032 C 6.481,0 5.086,2.072 4.579,3.311 z" />
    </g>
    <g
       id="g212"
       style="fill:#d10b1f;fill-rule:nonzero;stroke:none;stroke-width:1;stroke-linecap:butt;stroke-linejoin:miter;stroke-dasharray:none"
       transform="translate(190.965,561.15)">
      <path
         id="path214"
         d="M 19.786,17.421 C 19.035,18.413 18.276,19.377 17.576,20.266 C 17.576,20.266 16.886,21.142 16.886,21.142 C 13.477,25.482 11.186,25.828 8.546,25.828 C 6.202,25.828 5.014,24.907 4.816,24.326 C 4.669,23.892 4.846,22.739 5.101,21.995 C 5.101,21.995 1.009,20.56 1.009,20.56 C 0.834,21.058 0,23.636 0.712,25.726 C 1.41,27.773 3.88,30.163 8.546,30.163 C 12.723,30.163 16.147,29.102 20.295,23.822 C 20.295,23.822 20.981,22.952 20.981,22.952 C 24.993,17.861 29.541,12.092 28.829,7.318 C 28.254,3.459 25.751,1.03 21.782,0.474 C 18.374,0 15.526,0.211 11.865,2.747 C 8.251,5.246 7.623,8.48 7.563,8.84 C 7.563,8.84 11.833,9.588 11.833,9.588 C 11.848,9.514 12.227,7.768 14.332,6.315 C 16.889,4.543 18.579,4.406 21.181,4.77 C 23.272,5.063 24.245,5.985 24.541,7.957 C 24.731,9.242 24.014,11.007 22.883,12.921 C 22.883,12.921 22.827,13.027 22.827,13.027 C 22.827,13.027 13.044,13.027 13.044,13.027 C 13.044,13.027 10.136,17.363 10.136,17.363 C 10.136,17.363 19.819,17.363 19.819,17.363 C 19.819,17.363 19.786,17.421 19.786,17.421 z" />
    </g>
    <g
       id="g216"
       style="fill:#d10b1f;fill-rule:nonzero;stroke:none;stroke-width:1;stroke-linecap:butt;stroke-linejoin:miter;stroke-dasharray:none"
       transform="translate(267.964,568.73)">
      <path
         id="path218"
         d="M 15.631,4.832 C 13.544,4.729 10.671,5.186 9.483,7.098 C 9.483,7.098 9.009,7.86 9.009,7.86 C 7.036,11.025 4.336,15.356 4.336,16.911 C 4.336,17.394 4.341,17.493 4.498,17.747 C 4.757,18.165 4.804,18.238 6.911,18.238 C 9.459,18.238 10.669,18.105 11.544,17.182 C 12.251,16.435 12.312,15.837 12.313,15.834 C 12.313,15.834 16.884,15.827 16.884,15.827 C 16.796,16.23 16.313,18.174 14.581,20.002 C 12.329,22.376 9.44,22.574 6.812,22.574 C 4.64,22.574 2.392,22.577 0.814,20.033 C 0,18.722 0,17.587 0,16.911 C 0,14.305 2.015,10.886 5.329,5.566 C 5.329,5.566 5.801,4.809 5.801,4.809 C 8.534,0.415 14.438,0 17.516,0.77 C 21.051,1.653 21.676,5.309 21.231,7.547 C 21.231,7.547 16.774,7.56 16.774,7.56 C 16.776,7.551 17.127,6.234 16.964,5.594 C 16.829,4.987 16.331,4.865 15.631,4.832 z" />
    </g>
    <g
       id="g220"
       style="fill:#d10b1f;fill-rule:nonzero;stroke:none;stroke-width:1;stroke-linecap:butt;stroke-linejoin:miter;stroke-dasharray:none"
       transform="translate(305.92,569.19)">
      <path
         id="path222"
         d="M 9.758,11.407 C 9.758,11.407 11.062,7.738 11.062,7.738 C 11.412,6.793 12.316,4.637 20.402,4.387 C 19.863,5.907 18.904,8.587 17.894,11.411 C 17.894,11.411 9.758,11.407 9.758,11.407 z M 16.357,15.71 C 15.097,19.232 14.064,22.117 14.064,22.117 C 14.064,22.117 18.694,22.114 18.694,22.114 C 18.694,22.114 26.566,0 26.566,0 C 26.566,0 23.495,0 23.495,0 C 23.495,0 21.896,0 21.896,0 C 13.07,0 8.613,1.872 6.988,6.252 C 6.988,6.252 3.945,14.743 3.945,14.743 C 2.835,17.73 0.419,17.824 0.011,17.806 C 0.011,17.806 0,22.096 0,22.096 C 1.957,22.267 6.151,21.259 8.021,16.231 C 8.021,16.231 8.207,15.713 8.207,15.713 C 8.207,15.713 16.357,15.71 16.357,15.71 z" />
    </g>
    <g
       id="g224"
       style="fill:#d10b1f;fill-rule:nonzero;stroke:none;stroke-width:1;stroke-linecap:butt;stroke-linejoin:miter;stroke-dasharray:none"
       transform="translate(291.714,569.219)">
      <path
         id="path226"
         d="M 1.507,4.336 C 1.507,4.336 4.055,0 4.055,0 C 4.055,0 17.496,0 17.496,0 C 17.496,0 15.217,4.336 15.217,4.336 C 15.217,4.336 10.887,4.331 10.887,4.331 C 10.887,4.331 4.601,22.089 4.601,22.089 C 4.601,22.089 0,22.091 0,22.091 C 0,22.091 6.287,4.331 6.287,4.331 C 6.287,4.331 1.507,4.336 1.507,4.336 z" />
    </g>
  </g>
</svg>
